<?xml version="1.0" standalone="no"?><!-- Generator: Gravit.io --><svg xmlns="http://www.w3.org/2000/svg" xmlns:xlink="http://www.w3.org/1999/xlink" style="isolation:isolate" viewBox="29.99 119.525 50.245 52.564" width="50.245" height="52.564"><g id="Group" style="opacity:0.3;"><path d=" M 62.967 169.514 L 64.638 170.697 L 64.695 170.74 L 64.802 170.783 L 66.022 171.364 L 65.986 171.278 C 67.14 171.752 68.352 172.088 69.672 172.088 C 75.509 172.088 80.235 167.176 80.235 161.116 C 80.235 155.057 75.502 150.144 69.672 150.144 C 67.8 150.144 66.072 150.689 64.544 151.578 C 65.068 145.712 68.023 137.157 78.851 128.429 C 80.364 127.21 80.644 124.944 79.468 123.373 C 78.779 122.448 77.754 121.975 76.721 121.975 C 75.975 121.975 75.229 122.226 74.591 122.728 C 61.303 133.456 57.983 144.471 57.538 151.829 C 56.778 161.238 59.632 166.186 62.242 168.768 L 62.967 169.514 Z " fill="rgb(175,185,189)"/><path d=" M 34.834 166.318 L 35.565 167.064 L 37.229 168.247 L 37.286 168.29 L 37.401 168.334 L 38.62 168.914 L 38.584 168.828 C 39.739 169.302 40.958 169.639 42.278 169.639 C 48.108 169.639 52.827 164.726 52.827 158.666 C 52.827 152.607 48.108 147.694 42.263 147.694 C 40.392 147.694 38.663 148.239 37.136 149.128 C 37.652 143.262 40.607 134.707 51.435 125.979 C 52.956 124.76 53.228 122.494 52.052 120.923 C 51.364 119.998 50.338 119.525 49.305 119.525 C 48.56 119.525 47.814 119.776 47.176 120.278 C 33.88 131.006 30.567 142.021 30.115 149.379 C 29.355 158.788 32.209 163.737 34.834 166.318 Z " fill="rgb(175,185,189)"/></g></svg>